<?xml version="1.0" encoding="UTF-8"?>
<svg xmlns="http://www.w3.org/2000/svg" xmlns:xlink="http://www.w3.org/1999/xlink" width="64px" height="64px" viewBox="0 0 64 64" version="1.1">
<g id="surface1">
<path style=" stroke:none;fill-rule:nonzero;fill:rgb(100%,100%,100%);fill-opacity:1;" d="M 55.449219 48.386719 L 39.050781 31.925781 L 55.488281 15.675781 C 56.164062 15 56.164062 13.898438 55.488281 13.226562 L 50.8125 8.523438 C 50.488281 8.199219 50.050781 8.023438 49.585938 8.023438 C 49.125 8.023438 48.6875 8.210938 48.363281 8.523438 L 32 24.726562 L 15.613281 8.539062 C 15.289062 8.210938 14.851562 8.039062 14.386719 8.039062 C 13.925781 8.039062 13.488281 8.226562 13.164062 8.539062 L 8.5 13.238281 C 7.824219 13.914062 7.824219 15.011719 8.5 15.6875 L 24.9375 31.9375 L 8.550781 48.386719 C 8.226562 48.710938 8.039062 49.148438 8.039062 49.613281 C 8.039062 50.074219 8.210938 50.511719 8.550781 50.835938 L 13.226562 55.539062 C 13.5625 55.875 14 56.050781 14.449219 56.050781 C 14.886719 56.050781 15.335938 55.886719 15.675781 55.539062 L 32 39.136719 L 48.335938 55.523438 C 48.675781 55.863281 49.113281 56.039062 49.5625 56.039062 C 50 56.039062 50.449219 55.875 50.789062 55.523438 L 55.460938 50.824219 C 55.789062 50.5 55.976562 50.0625 55.976562 49.601562 C 55.960938 49.148438 55.773438 48.710938 55.449219 48.386719 Z M 55.449219 48.386719 "/>
</g>
</svg>
