<?xml version="1.0" encoding="UTF-8" standalone="no"?>
<!-- Generator: Adobe Illustrator 25.2.1, SVG Export Plug-In . SVG Version: 6.00 Build 0)  -->

<svg
   xmlns:dc="http://purl.org/dc/elements/1.1/"
   xmlns:cc="http://creativecommons.org/ns#"
   xmlns:rdf="http://www.w3.org/1999/02/22-rdf-syntax-ns#"
   xmlns:svg="http://www.w3.org/2000/svg"
   xmlns="http://www.w3.org/2000/svg"
   xmlns:sodipodi="http://sodipodi.sourceforge.net/DTD/sodipodi-0.dtd"
   xmlns:inkscape="http://www.inkscape.org/namespaces/inkscape"
   version="1.1"
   id="Layer_1"
   x="0px"
   y="0px"
   viewBox="0 0 156.08817 261.23887"
   xml:space="preserve"
   sodipodi:docname="elephant-skin-logo.svg"
   width="156.08817"
   height="261.23886"
   inkscape:version="0.92.5 (2060ec1f9f, 2020-04-08)"><metadata
   id="metadata359"><rdf:RDF><cc:Work
       rdf:about=""><dc:format>image/svg+xml</dc:format><dc:type
         rdf:resource="http://purl.org/dc/dcmitype/StillImage" /><dc:title></dc:title></cc:Work></rdf:RDF></metadata><defs
   id="defs357">
	
	
	
	
	
	
	
	
	
	
	
	
	
	
	
	
	
	
	
	
	
	
	
	
	
	
	
	
	
	
	
	
	
	
	
	
	
	
	
	
	
	
	
	
	
	
	
	
	
	
	
	
	
	
	
	
	
	
	
	
	
	
	
	
	
	
	
	
	
	
	
	
	
	
	
	
	
	
	
	
	
	
	
	
	
	
	
	
	
	
	
	
	
	
	
	
	
	
	
	
	
	
	
	
	
	
	
	
	
	
	
	
	
	
	
	
	
	
	
	
	
	
	
	
	
	
	
	
	
	
	
	
	
	
	
	
	
	
	
	
	
	
	
	
	
	
	
	
	
	
	
	
	
	
	
	
	
	
	
	
	
	
	
	
	
	
	
	
	
	
	
	
	
	
</defs><sodipodi:namedview
   pagecolor="#ED196D"
   bordercolor="#666666"
   borderopacity="1"
   objecttolerance="10"
   gridtolerance="10"
   guidetolerance="10"
   inkscape:pageopacity="0"
   inkscape:pageshadow="2"
   inkscape:window-width="1920"
   inkscape:window-height="1044"
   id="namedview355"
   showgrid="false"
   inkscape:zoom="0.36535976"
   inkscape:cx="250.79154"
   inkscape:cy="260.89041"
   inkscape:window-x="0"
   inkscape:window-y="0"
   inkscape:window-maximized="1"
   inkscape:current-layer="Layer_1" />
<style
   type="text/css"
   id="style2">
	.st0{fill:#ED196D;}
</style>
<g
   id="g570"
   transform="translate(-1580.9535,-15.051146)"
   style="fill:#ED196D"><path
     class="st0"
     d="m 1684.52,276.29 c -0.6,-0.44 -1.29,-0.35 -1.95,-0.29 -1.25,0.11 -2.43,-0.06 -3.6,-0.5 -0.51,-0.19 -1.06,-0.37 -1.59,-0.36 -3.12,0.07 -6.05,-0.79 -8.92,-1.85 -2.63,-0.97 -5.19,-2.14 -7.75,-3.31 -1.97,-0.9 -2.14,-1.32 -1.58,-3.45 1.65,-6.26 3.33,-12.51 5.02,-18.76 0.2,-0.74 0.33,-1.55 1.08,-2.21 0.34,0.41 0.67,0.74 0.93,1.13 1.68,2.58 4.14,3.85 7.11,4.39 2.13,0.38 4.27,0.34 6.4,0.24 2.46,-0.12 4.63,-1.1 6.42,-2.8 0.88,-0.84 1.68,-1.78 2.42,-2.75 2.99,-3.93 5.09,-8.34 6.69,-12.98 0.92,-2.65 1.82,-5.34 2.37,-8.08 0.56,-2.8 1.31,-5.59 1.26,-8.5 -0.01,-0.54 0.15,-1.08 0.22,-1.63 0.16,-1.27 0.43,-2.54 0.46,-3.81 0.06,-3.36 0.02,-6.72 -0.02,-10.09 -0.02,-1.46 0,-2.93 -0.42,-4.36 -0.21,-0.7 0.37,-1.2 1.07,-0.96 0.63,0.22 1.25,0.49 1.86,0.77 9.88,4.68 19.77,9.37 29.64,14.07 0.72,0.34 1.43,0.7 2.11,1.11 0.85,0.51 1.01,0.84 0.76,1.81 -0.68,2.6 -1.36,5.2 -2.14,7.77 -1.72,5.67 -3.86,11.19 -6.23,16.63 -2.84,6.54 -6.48,12.59 -10.47,18.47 -0.82,1.21 -1.77,2.34 -2.71,3.46 -0.87,1.03 -1.85,1.95 -2.53,3.13 -0.21,0.36 -0.55,0.65 -0.86,0.94 -3.14,3.02 -6.6,5.64 -10.24,8.03 -2.69,1.77 -5.72,2.73 -8.81,3.5 -0.65,0.16 -1.32,0.25 -1.96,0.45 -0.63,0.2 -1.23,0.51 -1.84,0.76 -0.73,0.03 -1.46,0.03 -2.2,0.03 z"
     id="path6"
     inkscape:connector-curvature="0"
     style="fill:#ED196D" /><path
     class="st0"
     d="m 1619.86,143 c -5.51,0 -11.02,0 -16.53,0 -0.61,0 -1.23,-0.01 -1.83,-0.09 -0.61,-0.09 -0.95,-0.56 -0.94,-1.17 0,-0.12 0.02,-0.24 0.03,-0.37 0.53,-4.73 1.08,-9.47 1.6,-14.2 0.31,-2.85 0.55,-5.72 0.84,-8.57 0.29,-2.8 0.59,-5.59 0.9,-8.38 0.3,-2.73 0.63,-5.46 0.94,-8.19 0.34,-3.04 0.66,-6.07 0.98,-9.11 0.06,-0.61 0.1,-1.22 0.16,-1.83 0.05,-0.42 0.09,-0.85 0.19,-1.26 0.14,-0.58 0.49,-0.95 1.15,-0.99 1.59,-0.1 3.17,-0.27 4.76,-0.34 5.32,-0.24 10.64,-0.44 15.95,-0.66 0.31,-0.01 0.61,-0.03 0.92,-0.04 5.26,-0.15 10.52,-0.27 15.78,-0.45 3.12,-0.11 6.24,-0.23 9.35,-0.46 1.69,-0.13 3.27,0.1 4.84,0.72 3.46,1.37 6.94,2.7 10.42,4.05 1.25,0.49 2.49,1.02 3.77,1.42 1.62,0.51 2.71,1.53 3.51,3.01 2.44,4.45 4.94,8.86 7.41,13.29 2.95,5.28 5.91,10.56 8.86,15.84 0.21,0.37 0.44,0.74 0.62,1.12 0.38,0.8 0.49,1.6 0.24,2.49 -0.95,3.41 -1.85,6.84 -2.77,10.26 -0.05,0.18 -0.12,0.35 -0.18,0.52 -0.27,0.77 -0.8,1.16 -1.65,1.2 -2.32,0.1 -4.64,0.24 -6.96,0.35 -5.01,0.23 -10.02,0.44 -15.03,0.67 -0.24,0.01 -0.49,0.03 -0.73,0.03 -6.24,0.16 -12.48,0.29 -18.72,0.48 -2.87,0.09 -5.74,0.29 -8.61,0.44 -1.47,0.08 -2.93,0.19 -4.4,0.2 -4.96,0.03 -9.92,0.01 -14.87,0.01 0,0 0,0 0,0.01 z"
     id="path18"
     inkscape:connector-curvature="0"
     style="fill:#ED196D" /><path
     class="st0"
     d="m 1669.23,83.57 c -0.62,0.56 -1.3,0.62 -1.95,0.63 -3.12,0.05 -6.24,0.07 -9.36,0.11 -1.13,0.01 -2.16,-0.39 -3.18,-0.79 -7.35,-2.84 -14.7,-5.68 -22.05,-8.53 -6.83,-2.65 -13.66,-5.31 -20.49,-7.98 -0.8,-0.31 -1.57,-0.67 -2.36,-1 -0.58,-0.24 -0.84,-0.69 -0.85,-1.29 -0.01,-0.67 -0.03,-1.35 0.05,-2.02 0.37,-3.4 0.77,-6.8 1.15,-10.2 0.32,-2.85 0.65,-5.71 0.95,-8.56 0.38,-3.71 0.69,-7.42 1.12,-11.13 0.28,-2.42 0.57,-2.69 2.96,-2.68 7.28,0.03 14.57,0.01 21.85,0.01 2.53,0 2.65,0.08 3.89,2.29 8.81,15.73 17.63,31.46 26.43,47.2 0.54,0.96 1.04,1.94 1.53,2.93 0.14,0.32 0.2,0.68 0.31,1.01 z"
     id="path40"
     inkscape:connector-curvature="0"
     style="fill:#ED196D" /><path
     class="st0"
     d="m 1698.74,82.72 c -1.63,0.13 -3.21,0.32 -4.8,0.38 -3.97,0.17 -7.95,0.29 -11.92,0.43 -2.45,0.09 -4.89,0.18 -7.34,0.26 -0.43,0.01 -0.86,0.04 -1.28,-0.02 -0.63,-0.08 -1.16,-0.36 -1.5,-0.94 -0.4,-0.69 -0.82,-1.36 -1.21,-2.05 -7.75,-13.8 -15.5,-27.61 -23.25,-41.42 -1.26,-2.24 -2.51,-4.48 -3.75,-6.72 -0.24,-0.43 -0.45,-0.87 -0.61,-1.33 -0.18,-0.51 0.14,-0.99 0.69,-1.08 0.3,-0.05 0.61,-0.06 0.91,-0.06 5.2,-0.01 10.41,-0.01 15.61,-0.03 1.44,0 2.58,0.59 3.58,1.59 2.68,2.69 5.38,5.35 8.07,8.02 1.39,1.38 2.77,2.77 4.14,4.16 0.47,0.48 1,0.94 1.33,1.51 0.8,1.4 2.01,2.45 2.99,3.69 1.81,2.31 3.54,4.68 5.26,7.06 3.04,4.21 5.9,8.54 8.59,12.99 2.18,3.6 3.63,7.46 4.74,11.48 0.18,0.67 0.33,1.33 -0.25,2.08 z"
     id="path56"
     inkscape:connector-curvature="0"
     style="fill:#ED196D" /><path
     class="st0"
     d="m 1595.98,89.13 c 1.65,-0.06 3.3,-0.13 4.95,-0.19 0.49,-0.02 0.98,-0.04 1.47,0 0.86,0.07 1.2,0.42 1.21,1.29 0.01,0.92 0.01,1.84 -0.09,2.75 -0.54,5.04 -1.1,10.08 -1.66,15.12 -0.41,3.77 -0.82,7.53 -1.24,11.3 -0.44,4.01 -0.9,8.02 -1.32,12.03 -0.31,2.92 -0.58,5.84 -0.87,8.76 -0.03,0.3 -0.04,0.61 -0.09,0.91 -0.27,1.66 -0.64,2.01 -2.28,1.88 -0.71,-0.06 -1.45,-0.26 -2.1,-0.56 -3.77,-1.74 -7.52,-3.54 -11.28,-5.32 -0.22,-0.1 -0.43,-0.23 -0.64,-0.35 -0.69,-0.4 -1.07,-0.97 -1.06,-1.79 0.01,-0.61 -0.02,-1.22 -0.02,-1.83 0,-13.21 0,-26.42 0,-39.63 0,-0.86 0.04,-1.71 0.07,-2.57 0.02,-0.55 0.33,-0.92 0.85,-1.07 0.41,-0.12 0.83,-0.22 1.26,-0.23 4.28,-0.19 8.56,-0.35 12.84,-0.53 0,0.01 0,0.02 0,0.03 z"
     id="path84"
     inkscape:connector-curvature="0"
     style="fill:#ED196D" /><path
     class="st0"
     d="m 1605.77,64.46 c -0.48,-0.16 -1.12,-0.36 -1.74,-0.59 -6.77,-2.61 -13.55,-5.21 -20.31,-7.86 -3.14,-1.23 -2.73,-1.22 -2.75,-3.95 -0.03,-6.35 -0.01,-12.7 -0.01,-19.05 0,-0.49 0.03,-0.98 0.06,-1.46 0.04,-0.71 0.5,-1.11 1.13,-1.27 0.41,-0.1 0.85,-0.11 1.27,-0.11 8.07,-0.01 16.14,0 24.21,0 0.06,0 0.12,0 0.18,0 2.03,0.06 2.35,0.38 2.14,2.42 -0.33,3.16 -0.73,6.3 -1.07,9.46 -0.31,2.79 -0.56,5.59 -0.88,8.37 -0.49,4.24 -0.67,8.52 -1.42,12.73 -0.08,0.47 -0.11,0.97 -0.81,1.31 z"
     id="path104"
     inkscape:connector-curvature="0"
     style="fill:#ED196D" /><path
     class="st0"
     d="m 1630.26,145.79 c 0.52,-0.44 1.08,-0.38 1.62,-0.4 4.22,-0.15 8.44,-0.26 12.65,-0.43 4.22,-0.17 8.43,-0.41 12.64,-0.61 0.18,-0.01 0.37,-0.02 0.55,-0.02 4.28,-0.15 8.56,-0.3 12.84,-0.45 5.26,-0.19 10.51,-0.4 15.77,-0.59 0.73,-0.03 1.47,-0.05 2.2,-0.01 0.71,0.05 1.1,0.56 0.95,1.27 -0.2,0.96 -0.45,1.9 -0.7,2.84 -0.98,3.66 -1.96,7.31 -2.96,10.96 -0.21,0.76 -0.47,1.51 -0.76,2.25 -0.19,0.5 -0.59,0.75 -1.15,0.75 -0.67,-0.01 -1.35,0.01 -2.02,-0.01 -1.17,-0.03 -2.31,0.12 -3.44,0.47 -0.52,0.16 -1.07,0.24 -1.61,0.26 -1.1,0.04 -2.2,0.04 -3.3,0 -2.36,-0.08 -4.67,0.25 -6.8,1.22 -2.19,1 -4.02,0.51 -5.83,-0.77 -1.26,-0.89 -2.35,-1.95 -3.29,-3.17 -0.49,-0.64 -0.9,-1.32 -0.95,-2.14 -0.05,-0.89 -0.56,-1.45 -1.27,-1.89 -0.83,-0.52 -1.64,-1.06 -2.48,-1.56 -2.3,-1.39 -4.63,-2.74 -6.92,-4.14 -1.45,-0.88 -3.07,-1.16 -4.68,-1.48 -0.48,-0.09 -0.96,-0.18 -1.44,-0.26 -2.34,-0.41 -4.68,-0.81 -7.01,-1.24 -0.89,-0.17 -1.8,-0.3 -2.61,-0.85 z"
     id="path116"
     inkscape:connector-curvature="0"
     style="fill:#ED196D" /><path
     class="st0"
     d="m 1719.89,174.13 c -0.63,0 -1.05,0.05 -1.46,-0.01 -4.47,-0.67 -8.93,-1.35 -13.39,-2.05 -4.04,-0.63 -8.07,-1.31 -12.12,-1.89 -1.12,-0.16 -1.93,-0.62 -2.56,-1.54 -0.82,-1.21 -1.66,-2.42 -2.56,-3.58 -0.65,-0.84 -0.83,-1.75 -0.64,-2.75 0.08,-0.42 0.2,-0.83 0.31,-1.24 1.42,-5.24 2.83,-10.49 4.25,-15.73 0.1,-0.35 0.2,-0.71 0.29,-1.06 0.18,-0.67 0.61,-1.03 1.29,-1.13 0.18,-0.03 0.36,-0.07 0.54,-0.09 2.86,-0.37 5.72,-0.38 8.55,-0.29 0.9,0.74 1.32,1.71 1.83,2.6 4.2,7.45 8.38,14.91 12.56,22.37 0.78,1.39 1.55,2.77 2.32,4.16 0.23,0.43 0.44,0.87 0.62,1.32 0.08,0.22 0.09,0.46 0.17,0.91 z"
     id="path124"
     inkscape:connector-curvature="0"
     style="fill:#ED196D" /><path
     class="st0"
     d="m 1581.15,58.25 c 0.77,-0.4 1.46,-0.22 2.16,0.06 1.59,0.62 3.19,1.22 4.79,1.84 5.18,2 10.36,4 15.54,6.01 0.45,0.18 0.89,0.4 1.34,0.58 0.86,0.36 1.16,1.01 1.06,1.91 -0.24,2.25 -0.46,4.49 -0.7,6.74 -0.32,2.97 -0.65,5.95 -0.98,8.92 -0.04,0.36 -0.04,0.74 -0.12,1.09 -0.15,0.67 -0.58,1.02 -1.29,1.07 -1.58,0.12 -3.17,0.26 -4.76,0.31 -5.01,0.16 -10.01,0.57 -15.03,0.46 -1.95,-0.04 -2.17,-0.22 -2.18,-2.27 -0.02,-3.18 -0.01,-6.35 -0.01,-9.53 0,-5.01 0,-10.02 0,-15.03 0,-0.73 -0.08,-1.47 0.18,-2.16 z"
     id="path128"
     inkscape:connector-curvature="0"
     style="fill:#ED196D" /><path
     class="st0"
     d="m 1656.03,266.92 c -0.38,-0.26 -0.77,-0.45 -1.06,-0.74 -1.53,-1.49 -3.05,-3.01 -4.56,-4.52 -0.26,-0.26 -0.52,-0.52 -0.71,-0.83 -1.57,-2.57 -2.99,-5.21 -3.52,-8.21 -0.37,-2.11 -0.31,-4.22 0.15,-6.36 0.66,-3.11 1.36,-6.21 2.29,-9.24 0.73,-2.39 1.58,-4.75 2.47,-7.09 0.67,-1.78 1.6,-3.44 2.85,-4.89 0.71,-0.83 1.52,-1.59 2.38,-2.26 0.93,-0.73 2.04,-1.09 3.24,-1.08 1.29,0 2.57,0.02 3.86,0 1.48,-0.03 2.73,0.56 3.91,1.37 0.6,0.41 0.71,0.94 0.53,1.6 -1.04,4.02 -2.04,8.04 -3.12,12.05 -2.18,8.14 -4.4,16.27 -6.6,24.4 -0.33,1.24 -0.59,2.5 -0.95,3.73 -0.2,0.67 -0.32,1.43 -1.16,2.07 z"
     id="path132"
     inkscape:connector-curvature="0"
     style="fill:#ED196D" /><path
     class="st0"
     d="m 1699.26,191.87 c -0.9,-1.23 -1.23,-2.38 -1.37,-3.61 -0.09,-0.84 -0.29,-1.67 -0.46,-2.5 -0.75,-3.73 -2.26,-7.2 -3.6,-10.73 -0.17,-0.45 -0.29,-0.93 -0.4,-1.4 -0.04,-0.17 0.04,-0.36 0.06,-0.57 0.88,-0.49 1.81,-0.21 2.68,-0.08 5.43,0.81 10.85,1.67 16.26,2.53 2.71,0.43 5.4,0.98 8.12,1.35 1.04,0.14 1.65,0.61 2.12,1.48 0.72,1.35 1.49,2.66 2.24,3.99 1.41,2.5 2.82,5 4.22,7.5 0.29,0.52 0.67,1.03 0.45,1.71 -0.47,0.43 -1.04,0.31 -1.57,0.32 -5.38,0.1 -10.75,0.21 -16.13,0.27 -3.24,0.04 -6.48,0.01 -9.72,-0.03 -0.96,-0.02 -1.93,-0.15 -2.9,-0.23 z"
     id="path150"
     inkscape:connector-curvature="0"
     style="fill:#ED196D" /><path
     class="st0"
     d="m 1649.64,84.49 c -1.05,0.45 -1.91,0.46 -2.76,0.49 -4.7,0.15 -9.41,0.28 -14.11,0.46 -4.46,0.17 -8.91,0.41 -13.37,0.6 -3.36,0.15 -6.72,0.29 -10.07,0.39 -2.48,0.08 -2.79,-0.24 -2.55,-2.72 0.39,-3.94 0.86,-7.88 1.3,-11.82 0.06,-0.55 0.11,-1.09 0.16,-1.64 0.05,-0.55 0.14,-1.09 0.5,-1.49 0.95,-0.35 1.73,0.06 2.52,0.37 5.29,2.04 10.58,4.1 15.87,6.15 7,2.71 13.99,5.42 20.99,8.13 0.34,0.13 0.7,0.24 1.01,0.42 0.16,0.1 0.26,0.34 0.51,0.66 z"
     id="path174"
     inkscape:connector-curvature="0"
     style="fill:#ED196D" /><path
     class="st0"
     d="m 1736.96,191.73 c -0.6,0.12 -1.08,0.3 -1.54,0.27 -0.7,-0.04 -1.3,-0.35 -1.55,-1.09 -0.18,-0.52 -0.38,-1.03 -0.54,-1.56 -0.91,-3.04 -1.81,-6.09 -2.71,-9.13 -0.09,-0.29 -0.11,-0.61 -0.22,-0.89 -0.37,-1 -0.16,-1.79 0.8,-2.33 0.09,-0.05 0.14,-0.19 0.22,-0.29 -0.02,-0.46 -0.38,-0.61 -0.73,-0.64 -1.02,-0.11 -1.47,-0.75 -1.72,-1.65 -0.26,-0.94 -0.54,-1.88 -0.82,-2.82 -2.56,-8.67 -5.12,-17.34 -7.67,-26.01 -0.22,-0.76 -0.43,-1.53 -0.56,-2.31 -0.14,-0.8 0.15,-1.22 0.92,-1.26 2.51,-0.12 5.01,-0.2 7.52,-0.3 0.92,-0.03 1.48,0.4 1.75,1.29 0.34,1.11 0.81,2.18 1.1,3.3 1.02,3.96 2.09,7.92 2.93,11.92 0.68,3.22 1.47,6.43 1.72,9.74 0.01,0.12 0.01,0.25 0.05,0.36 0.72,1.75 0.44,3.62 0.7,5.42 0.74,5.24 0.27,10.5 0.42,15.74 0.02,0.66 -0.04,1.33 -0.07,2.24 z"
     id="path176"
     inkscape:connector-curvature="0"
     style="fill:#ED196D" /><path
     class="st0"
     d="m 1704.04,139.99 c -0.97,-1.63 -1.94,-3.18 -2.83,-4.78 -1.34,-2.4 -2.62,-4.83 -3.94,-7.25 -0.4,-0.73 -0.51,-1.4 -0.27,-2.26 1.7,-6.18 3.3,-12.39 4.98,-18.58 0.7,-2.57 0.91,-2.35 3.17,-1.58 0.77,0.26 1.24,0.75 1.53,1.46 0.21,0.51 0.38,1.03 0.53,1.56 2.7,9.2 5.4,18.4 8.09,27.6 0.24,0.82 0.45,1.65 0.62,2.49 0.12,0.58 -0.11,0.91 -0.69,1.1 -0.35,0.11 -0.71,0.23 -1.07,0.23 -3.31,0.02 -6.61,0.01 -10.12,0.01 z"
     id="path178"
     inkscape:connector-curvature="0"
     style="fill:#ED196D" /><path
     class="st0"
     d="m 1611.14,15.82 c 0.61,0.83 0.51,1.52 0.45,2.17 -0.21,2.31 -0.47,4.61 -0.71,6.92 -0.03,0.3 -0.11,0.6 -0.17,0.9 -0.36,1.84 -0.46,1.95 -2.41,1.96 -8.31,0.01 -16.62,0.02 -24.93,0 -2.29,0 -2.36,-0.11 -2.37,-2.41 -0.01,-2.56 0,-5.13 0,-7.69 0,-0.31 -0.01,-0.61 0.01,-0.92 0.08,-1.28 0.4,-1.65 1.66,-1.67 2.01,-0.04 4.03,-0.04 6.05,0.01 0.85,0.02 1.68,0.3 2.53,0.36 1.95,0.12 3.9,0.23 5.85,0.25 4.03,0.04 8.07,0.03 12.1,0.04 0.65,0.01 1.31,0.06 1.94,0.08 z"
     id="path184"
     inkscape:connector-curvature="0"
     style="fill:#ED196D" /><path
     class="st0"
     d="m 1674.37,86.37 c 0.51,-0.13 0.97,-0.27 1.44,-0.35 0.36,-0.06 0.73,-0.05 1.1,-0.06 5.01,-0.15 10.02,-0.29 15.04,-0.46 1.96,-0.07 3.91,-0.23 5.86,-0.29 2.31,-0.07 2.47,0.03 3.14,2.18 0.6,1.92 1.16,3.86 1.65,5.81 0.17,0.69 0.25,1.48 0.1,2.17 -0.34,1.61 -0.81,3.19 -1.31,4.76 -0.32,1 -0.68,1.15 -1.64,0.8 -2.18,-0.8 -4.35,-1.62 -6.51,-2.46 -4.67,-1.81 -9.32,-3.64 -13.98,-5.47 -0.45,-0.18 -0.93,-0.33 -1.34,-0.59 -0.45,-0.29 -0.97,-0.61 -1.22,-1.06 -0.83,-1.42 -1.56,-2.9 -2.32,-4.36 -0.06,-0.09 -0.01,-0.23 -0.01,-0.62 z"
     id="path198"
     inkscape:connector-curvature="0"
     style="fill:#ED196D" /><path
     class="st0"
     d="m 1720.71,139.65 c -0.31,0 -0.61,0.03 -0.92,-0.01 -0.59,-0.07 -1.05,-0.37 -1.26,-0.93 -0.3,-0.8 -0.58,-1.61 -0.82,-2.43 -2.51,-8.54 -5.02,-17.08 -7.51,-25.63 -0.22,-0.76 -0.4,-1.53 -0.54,-2.31 -0.08,-0.48 0.37,-0.88 0.8,-0.71 1.71,0.64 3.42,1.3 5.11,1.99 0.65,0.26 1.04,0.83 1.35,1.44 2,4.05 4.19,8 5.86,12.21 1.47,3.68 2.98,7.35 4.44,11.03 0.43,1.07 0.76,2.19 1.11,3.29 0.09,0.29 0.14,0.6 0.14,0.9 -0.01,0.39 -0.2,0.7 -0.62,0.77 -0.12,0.02 -0.24,0.03 -0.36,0.03 -2.26,0.09 -4.52,0.19 -6.77,0.28 -0.01,0.03 -0.01,0.06 -0.01,0.08 z"
     id="path202"
     inkscape:connector-curvature="0"
     style="fill:#ED196D" /><path
     class="st0"
     d="m 1637.76,27.19 c -0.5,0.64 -1.02,0.59 -1.5,0.6 -1.22,0.02 -2.45,0 -3.67,0 -5.51,0 -11.01,0 -16.52,0 -0.73,0 -1.47,-0.01 -2.2,-0.07 -0.57,-0.05 -0.87,-0.39 -0.88,-0.97 -0.01,-0.43 0.03,-0.86 0.07,-1.28 0.32,-2.79 0.66,-5.58 0.97,-8.37 0.08,-0.67 0.1,-1.35 0.81,-1.93 0.28,-0.02 0.7,-0.08 1.12,-0.09 1.59,-0.02 3.18,-0.02 4.77,-0.01 1.89,0.01 3.77,-0.08 5.65,0.36 1.18,0.27 2.43,0.31 3.65,0.33 1.04,0.02 1.73,0.45 2.22,1.32 1.23,2.18 2.48,4.35 3.72,6.53 0.42,0.74 0.84,1.49 1.22,2.26 0.23,0.42 0.39,0.88 0.57,1.32 z"
     id="path206"
     inkscape:connector-curvature="0"
     style="fill:#ED196D" /><path
     class="st0"
     d="m 1705.99,143.03 c 0.63,-0.48 1.31,-0.51 1.96,-0.55 2.32,-0.15 4.64,-0.26 6.96,-0.39 0.3,-0.02 0.61,-0.01 0.92,0 0.68,0.03 1.16,0.36 1.43,0.97 0.17,0.39 0.29,0.8 0.41,1.21 2.73,9.25 5.47,18.49 8.19,27.75 0.22,0.76 0.37,1.54 0.47,2.33 0.08,0.59 -0.28,0.91 -0.87,0.91 -1.05,0.01 -1.91,-0.35 -2.49,-1.26 -0.26,-0.41 -0.5,-0.84 -0.74,-1.26 -5.01,-8.95 -10.02,-17.91 -15.03,-26.86 -0.51,-0.91 -1.08,-1.78 -1.21,-2.85 z"
     id="path214"
     inkscape:connector-curvature="0"
     style="fill:#ED196D" /><path
     class="st0"
     d="m 1679.82,95.81 c 0.56,0.17 1.03,0.29 1.47,0.46 5.57,2.15 11.14,4.31 16.71,6.48 0.57,0.22 1.11,0.5 1.65,0.78 0.49,0.26 0.66,0.72 0.53,1.24 -0.2,0.83 -0.44,1.65 -0.66,2.47 -1.25,4.71 -2.51,9.43 -3.76,14.14 -0.13,0.47 -0.26,0.94 -0.43,1.4 -0.13,0.36 -0.66,0.44 -0.91,0.13 -0.27,-0.33 -0.51,-0.68 -0.72,-1.05 -4.45,-7.93 -8.89,-15.86 -13.32,-23.8 -0.27,-0.48 -0.47,-0.99 -0.65,-1.51 -0.05,-0.17 0.05,-0.42 0.09,-0.74 z"
     id="path218"
     inkscape:connector-curvature="0"
     style="fill:#ED196D" /><path
     class="st0"
     d="m 1705.07,194.52 c 0.22,-0.11 0.42,-0.27 0.64,-0.3 0.55,-0.05 1.1,-0.06 1.65,-0.06 7.28,0 14.55,0.05 21.83,-0.04 1.8,-0.02 2.92,0.57 3.55,2.2 0.29,0.74 0.67,1.44 0.9,2.2 0.64,2.04 1.24,4.09 1.81,6.14 0.33,1.19 0.48,2.4 0.08,3.61 -0.09,0.26 -0.34,0.47 -0.58,0.79 -0.71,-0.28 -1.4,-0.51 -2.05,-0.81 -8.77,-4.15 -17.54,-8.31 -26.3,-12.48 -0.56,-0.26 -1.33,-0.36 -1.53,-1.25 z"
     id="path228"
     inkscape:connector-curvature="0"
     style="fill:#ED196D" /><path
     class="st0"
     d="m 1581.01,159.69 c 0,-1.04 -0.04,-2.08 0.01,-3.11 0.05,-1.01 0.56,-1.35 1.6,-1.19 3.8,0.59 7.6,1.16 11.39,1.75 0.24,0.04 0.48,0.09 0.72,0.15 1.37,0.33 1.56,0.47 1.49,1.83 -0.1,2.01 -0.3,4.01 -0.47,6.02 -0.07,0.79 -0.16,1.58 -0.31,2.36 -0.17,0.91 -0.6,1.22 -1.54,1.18 -0.36,-0.02 -0.73,-0.07 -1.07,-0.19 -3,-1.02 -6,-2.04 -9,-3.09 -0.63,-0.22 -1.23,-0.53 -1.85,-0.8 -0.61,-0.28 -0.96,-0.74 -0.96,-1.43 0,-1.16 0,-2.32 0,-3.48 0,0 -0.01,0 -0.01,0 z"
     id="path240"
     inkscape:connector-curvature="0"
     style="fill:#ED196D" /><path
     class="st0"
     d="m 1599.12,158.22 c 0.79,0 1.46,-0.09 2.11,0.01 3.56,0.57 7.11,1.18 10.66,1.79 0.24,0.04 0.49,0.07 0.71,0.16 0.68,0.25 0.98,0.75 0.77,1.43 -0.51,1.63 -0.99,3.28 -1.63,4.86 -0.61,1.52 -1.86,2.56 -3.12,3.53 -0.41,0.31 -1.02,0.47 -1.54,0.49 -2.02,0.04 -4.04,0.03 -6.06,-0.04 -0.66,-0.02 -1.33,-0.24 -1.96,-0.46 -0.99,-0.35 -1.23,-0.74 -1.24,-1.78 0,-0.18 0.01,-0.37 0.03,-0.55 0.28,-2.74 0.56,-5.47 0.86,-8.2 0.05,-0.35 0.23,-0.69 0.41,-1.24 z"
     id="path242"
     inkscape:connector-curvature="0"
     style="fill:#ED196D" /><path
     class="st0"
     d="m 1635.17,16.62 c 2.16,-0.2 4.03,-0.08 5.89,0.4 0.53,0.13 1.08,0.26 1.62,0.27 1.59,0.01 3.01,0.53 4.29,1.41 2.71,1.88 5.39,3.8 8.08,5.71 0.7,0.5 1.4,0.98 2.07,1.52 0.46,0.37 1.02,0.71 0.98,1.57 -0.23,0.08 -0.49,0.23 -0.76,0.25 -0.73,0.05 -1.47,0.04 -2.2,0.05 -3.67,0 -7.34,0 -11.01,0 -0.49,0 -0.98,-0.06 -1.47,0 -1.19,0.13 -1.94,-0.33 -2.47,-1.41 -0.67,-1.37 -1.53,-2.64 -2.26,-3.98 -0.79,-1.45 -1.55,-2.91 -2.29,-4.38 -0.2,-0.39 -0.28,-0.81 -0.47,-1.41 z"
     id="path246"
     inkscape:connector-curvature="0"
     style="fill:#ED196D" /><path
     class="st0"
     d="m 1588.5,145.38 c 1.59,0 3.18,0.03 4.76,-0.01 1.07,-0.03 2.05,0.25 2.99,0.72 1.14,0.57 1.36,0.93 1.26,2.15 -0.07,0.85 -0.15,1.7 -0.25,2.55 -0.09,0.79 -0.19,1.57 -0.3,2.36 -0.06,0.42 -0.13,0.84 -0.26,1.24 -0.15,0.44 -0.5,0.68 -0.98,0.67 -0.12,0 -0.24,-0.01 -0.36,-0.03 -3.55,-0.55 -7.1,-1.1 -10.66,-1.66 -0.84,-0.13 -1.68,-0.27 -2.52,-0.44 -0.76,-0.16 -1.16,-0.68 -1.17,-1.43 -0.03,-1.59 -0.04,-3.17 0,-4.76 0.02,-0.71 0.41,-1.14 1.09,-1.28 0.41,-0.08 0.85,-0.08 1.27,-0.09 1.71,0.01 3.42,0.01 5.13,0.01 z"
     id="path250"
     inkscape:connector-curvature="0"
     style="fill:#ED196D" /><path
     class="st0"
     d="m 1599.39,153.55 c 0.13,-1.39 0.24,-2.79 0.4,-4.18 0.11,-0.95 0.62,-1.22 1.55,-0.85 0.62,0.24 1.22,0.54 1.83,0.83 2.75,1.3 5.51,2.6 8.25,3.9 0.44,0.21 0.88,0.43 1.29,0.67 0.49,0.29 0.84,0.72 0.95,1.29 0.31,1.67 -0.26,2.62 -1.92,2.41 -1.81,-0.23 -3.61,-0.53 -5.41,-0.8 -1.32,-0.2 -2.64,-0.42 -3.96,-0.63 -0.36,-0.06 -0.72,-0.13 -1.07,-0.21 -1.9,-0.44 -2,-0.57 -1.91,-2.43 z"
     id="path272"
     inkscape:connector-curvature="0"
     style="fill:#ED196D" /><path
     class="st0"
     d="m 1706.53,92.01 c 0.37,0.4 0.68,0.61 0.84,0.91 2.25,4.05 4.38,8.17 6.24,12.42 0.05,0.1 0.03,0.23 0.06,0.49 -0.33,0.03 -0.69,0.18 -0.98,0.08 -1.21,-0.42 -2.38,-0.93 -3.59,-1.37 -0.46,-0.17 -0.69,-0.49 -0.85,-0.9 -0.3,-0.8 -0.59,-1.6 -0.84,-2.42 -0.57,-1.93 -1.09,-3.87 -1.68,-5.8 -0.36,-1.2 -0.18,-2.25 0.8,-3.41 z"
     id="path292"
     inkscape:connector-curvature="0"
     style="fill:#ED196D" /><path
     class="st0"
     d="m 1693.56,140.25 c -0.26,-0.68 -0.1,-1.26 0.06,-1.85 0.61,-2.34 1,-4.75 2.13,-7.09 0.33,0.2 0.66,0.28 0.78,0.48 1.39,2.43 2.76,4.87 4.1,7.33 0.38,0.7 0.11,1.2 -0.68,1.27 -1.52,0.14 -3.04,0.23 -4.56,0.33 -0.61,0.04 -1.22,0.01 -1.83,-0.47 z"
     id="path298"
     inkscape:connector-curvature="0"
     style="fill:#ED196D" /><path
     class="st0"
     d="m 1601.76,145.79 c 0.49,-0.19 0.74,-0.35 1,-0.36 0.91,-0.04 1.83,-0.04 2.74,-0.04 1.89,0 3.78,0 5.67,0 0.43,0 0.86,-0.01 1.28,0.05 0.72,0.1 1.13,0.46 1.15,1.19 0.04,1.21 0,2.43 -0.07,3.64 -0.04,0.64 -0.53,0.92 -1.18,0.77 -0.18,-0.04 -0.35,-0.1 -0.51,-0.18 -3.13,-1.5 -6.26,-2.99 -9.38,-4.5 -0.16,-0.09 -0.28,-0.23 -0.7,-0.57 z"
     id="path302"
     inkscape:connector-curvature="0"
     style="fill:#ED196D" /><path
     class="st0"
     d="m 1670.83,86.34 c 0.91,1.09 1.79,2.16 2.04,3.57 -0.18,0.1 -0.29,0.2 -0.39,0.2 -1.07,-0.04 -1.98,-0.58 -2.93,-0.96 -1.68,-0.67 -3.44,-1.15 -5.21,-2.25 2.29,-0.68 4.37,-0.69 6.49,-0.56 z"
     id="path314"
     inkscape:connector-curvature="0"
     style="fill:#ED196D" /><path
     class="st0"
     d="m 1581.09,139.74 c 0.85,-0.42 1.4,-0.14 1.97,0.1 3.57,1.55 4.35,1.99 4.99,2.82 -0.08,0.08 -0.16,0.24 -0.24,0.24 -1.77,0.03 -3.55,0.09 -5.32,0.05 -1.18,-0.02 -1.5,-0.4 -1.52,-1.59 0,-0.52 0.08,-1.06 0.12,-1.62 z"
     id="path318"
     inkscape:connector-curvature="0"
     style="fill:#ED196D" /><path
     class="st0"
     d="m 1728.99,184.42 c -0.1,-0.14 -0.21,-0.28 -0.3,-0.43 -1.03,-1.78 -2.06,-3.57 -3.07,-5.36 -0.29,-0.52 -0.23,-0.9 0.12,-1.11 0.44,-0.27 1.02,-0.26 1.34,0.07 0.2,0.21 0.38,0.47 0.49,0.74 0.78,1.9 1.41,3.85 1.42,6.09 z"
     id="path326"
     inkscape:connector-curvature="0"
     style="fill:#ED196D" /><path
     class="st0"
     d="m 1736.94,194.61 c 0,1.04 0,2.05 0,3.18 -0.79,-0.16 -1.04,-0.72 -1.33,-1.22 -0.31,-0.55 -0.42,-1.14 -0.3,-1.75 0.08,-0.4 0.4,-0.64 0.8,-0.58 0.27,0.04 0.53,0.23 0.83,0.37 z"
     id="path340"
     inkscape:connector-curvature="0"
     style="fill:#ED196D" /><path
     class="st0"
     d="m 1704.23,99.96 c 0.87,0.58 0.81,1.38 0.79,2.14 0,0.15 -0.15,0.38 -0.27,0.41 -0.21,0.05 -0.47,0.02 -0.67,-0.06 -0.14,-0.06 -0.29,-0.24 -0.32,-0.39 -0.15,-0.71 -0.22,-1.42 0.47,-2.1 z"
     id="path344"
     inkscape:connector-curvature="0"
     style="fill:#ED196D" /><path
     class="st0"
     d="m 1704.1,88.49 c -0.67,-0.84 -0.67,-0.84 -0.67,-1.9 0.39,-0.15 0.5,0.17 0.62,0.4 0.26,0.47 0.35,0.96 0.05,1.5 z"
     id="path348"
     inkscape:connector-curvature="0"
     style="fill:#ED196D" /></g>
</svg>